<svg width="512" height="512" viewBox="0 0 512 512" fill="none" xmlns="http://www.w3.org/2000/svg">
<rect width="512" height="512" fill="#061539"/>
<g clip-path="url(#clip0_8837_354)">
<g clip-path="url(#clip1_8837_354)">
<path d="M104.819 236.767H113.328L113.59 236.232C112.103 233.652 111.061 231.382 110.449 229.427C109.837 227.472 109.534 225.201 109.534 222.622C109.534 219.597 110.099 216.771 111.236 214.15C112.366 211.53 113.96 209.239 116.011 207.277C118.063 205.322 120.484 203.785 123.275 202.674C126.066 201.562 129.16 201.007 132.564 201.007C137.359 201.007 141.832 202.166 145.975 204.478C150.118 206.79 153.501 210.041 156.118 214.219L142.114 226.36C139.411 222.444 135.785 220.488 131.252 220.488C129.16 220.488 127.412 221.044 126.019 222.155C124.62 223.267 123.928 224.714 123.928 226.491C123.928 228.802 125.28 230.764 127.983 232.363C130.687 233.961 134.568 234.764 139.626 234.764H158.21V254.245H104.819V236.76V236.767Z" fill="white"/>
<path d="M206.817 265.418C205.378 263.991 203.521 263.292 201.255 263.292H198.645C196.379 263.292 194.522 263.998 193.083 265.418C191.643 266.838 190.924 269.115 190.924 272.23C190.924 275.344 191.643 277.608 193.083 279.035C194.522 280.461 196.379 281.168 198.645 281.168H201.255C203.521 281.168 205.378 280.455 206.817 279.035C208.256 277.608 208.976 275.337 208.976 272.23C208.976 269.122 208.256 266.845 206.817 265.418ZM227.493 265.418C226.053 263.991 224.197 263.292 221.937 263.292H219.321C217.054 263.292 215.198 263.998 213.758 265.418C212.319 266.845 211.606 269.115 211.606 272.23C211.606 275.344 212.319 277.608 213.758 279.035C215.198 280.461 217.054 281.168 219.321 281.168H221.937C224.197 281.168 226.053 280.455 227.493 279.035C228.932 277.608 229.652 275.337 229.652 272.23C229.652 269.122 228.932 266.845 227.493 265.418Z" fill="white"/>
<path d="M300.314 155.486V226.223C300.314 235.745 298.505 242.776 294.88 247.31C291.261 251.851 285.087 254.163 276.363 254.252H266.678C259.696 254.252 254.396 252.805 250.778 249.91C247.159 247.015 244.738 242.46 243.521 236.232H242.734C241.51 242.467 239.418 247.022 236.458 249.91C233.492 252.805 229.168 254.252 223.504 254.252H195.37C186.559 254.252 180.021 252.119 175.744 247.845C171.466 243.572 169.334 236.637 169.334 227.026V155.486H185.032V224.351C185.032 228.357 185.819 231.005 187.386 232.287C188.96 233.577 191.664 234.222 195.498 234.222H231.354C238.328 234.222 241.819 231.114 241.819 224.879V205.795H256.212V224.879C256.212 231.114 259.266 234.222 265.373 234.222H276.363C279.679 234.222 281.879 233.577 282.975 232.287C284.058 231.005 284.603 228.981 284.603 226.217V155.486H300.307H300.314Z" fill="white"/>
<path d="M312.09 266.255H320.464C331.891 266.255 340.265 264.231 345.585 260.184C350.905 256.137 353.568 250.91 353.568 244.503V241.032H352.782C351.47 245.573 349.358 248.907 346.432 251.04C343.507 253.174 339.827 254.244 335.375 254.244C328.306 254.244 322.791 252.131 318.822 247.905C314.854 243.68 312.87 237.787 312.87 230.221C312.87 225.597 313.543 221.303 314.901 217.345C316.253 213.387 318.13 209.964 320.531 207.069C322.932 204.181 325.764 201.911 329.039 200.264C332.308 198.618 335.866 197.795 339.706 197.795C343.977 197.795 347.798 198.707 351.154 200.532C354.51 202.357 357.348 204.984 359.662 208.407C361.969 211.83 363.738 216.035 364.962 221.022C366.18 226.009 366.792 231.613 366.792 237.835C366.792 253.05 362.978 264.924 355.344 273.472C347.71 282.012 336.518 286.286 321.782 286.286H312.097V266.269L312.09 266.255ZM339.437 234.227C342.841 234.227 345.672 234.076 347.946 233.761C350.212 233.452 352.042 232.937 353.441 232.224C353.091 227.868 351.477 224.37 348.598 221.749C345.719 219.129 342.188 217.812 337.998 217.812C334.595 217.812 331.736 218.724 329.429 220.549C327.116 222.373 325.959 224.706 325.959 227.552C325.959 229.953 326.92 231.668 328.837 232.69C330.754 233.712 333.371 234.227 336.686 234.227H339.437Z" fill="white"/>
<path d="M372.806 150.286H378.301L378.429 149.621C376.681 147.666 375.813 145.306 375.813 142.548C375.813 138.81 377.145 135.723 379.801 133.274C382.458 130.825 385.888 129.604 390.072 129.604C392.601 129.604 395.042 130.139 397.396 131.202C399.75 132.272 401.802 133.74 403.544 135.606L397.262 144.551C395.17 142.418 392.769 141.348 390.065 141.348C388.579 141.348 387.381 141.705 386.467 142.418C385.552 143.131 385.095 143.975 385.095 144.956C385.095 147.892 388.108 149.36 394.121 149.36H403.806V161.104H372.793V150.293L372.806 150.286ZM380.528 171.771H396.233V254.245H380.528V171.771Z" fill="white"/>
<path d="M125.106 349.812L120.297 366.09H105.493L127.608 297.651H145.68L167.506 366.09H152.312L147.503 349.812H125.106ZM128.57 337.163H143.952L136.452 311.178H135.975L128.57 337.163Z" fill="white"/>
<path d="M196.73 366.09H180.002L164.809 297.651H179.229L185.571 330.502L189.129 349.524H189.419L201.054 297.651H217.015L224.514 330.502L228.651 349.524H228.94L232.498 330.502L238.941 297.651H252.783L237.206 366.09H220.573L212.112 329.027L208.843 314.025H208.554L196.73 366.09Z" fill="white"/>
<path d="M298.351 352.851V366.09H258.164V297.651H272.779V352.858H298.351V352.851Z" fill="white"/>
<path d="M326.911 339.226V366.096H312.201V339.329L289.226 297.656H305.57L319.99 324.917H320.185L334.027 297.656H349.893L326.918 339.233L326.911 339.226Z" fill="white"/>
<path d="M360.754 349.812L355.945 366.09H341.142L363.256 297.651H381.329L403.154 366.09H387.961L383.152 349.812H360.748H360.754ZM364.218 337.163H379.6L372.101 311.178H371.623L364.218 337.163Z" fill="white"/>
</g>
</g>
<defs>
<clipPath id="clip0_8837_354">
<rect width="299" height="247" fill="white" transform="translate(106 125)"/>
</clipPath>
<clipPath id="clip1_8837_354">
<rect width="299" height="236.489" fill="white" transform="translate(104.819 129.599)"/>
</clipPath>
</defs>
</svg>
