<svg width="73" height="73" viewBox="0 0 73 73" fill="none" xmlns="http://www.w3.org/2000/svg">
  <path
    d="M36.286 72.572c20.04 0 36.286-16.245 36.286-36.286C72.572 16.246 56.327 0 36.286 0 16.246 0 0 16.246 0 36.286c0 20.04 16.246 36.286 36.286 36.286z"
    fill="var(--color-avatar-background)" />
  <path
    d="M32.432 20.436s-5.738 1.224-3.417 7.637c0 0 2.686-.24 4.332-2.87 0 0 4.458 3.545 10.942 2.265 0 0 1.04-6.104-4.15-8.185-.013 0-3.98-2.082-7.707 1.153zM31.997 34.922s3.67 4.642 8.607.24c-.408.365 3.22 1.968 3.333 2.01 2.686.915 4.655 1.843 5.809 4.67.52 1.294.787 2.672.998 4.05.14.887.62 2.237.127 2.954-.535.802-2.11 1.463-2.911 1.927-7.82 4.416-19.733 4.697-26.343-2.166-.464-.478.394-3.333.52-3.924.31-1.519.732-3.038 1.505-4.388 1.744-3.066 6.962-2.025 8.355-5.373z"
    fill="var(--color-avatar-color)" />
  <path
    d="M33.586 26.61c-.788 1.407-3.727 2.195-3.727 2.195.914 5.738 6.23 5.809 6.23 5.809 6.287.056 6.78-5.992 6.78-5.992-5.12.492-9.283-2.011-9.283-2.011zm.225 4.53.928-.577s1.772 2.011 3.108-.014l.928.464c-.014.014-2.264 3.235-4.964.127z"
    fill="var(--color-avatar-color)" />
</svg>