<svg width="28" height="28" viewBox="0 0 28 28" fill="none" xmlns="http://www.w3.org/2000/svg">
<path d="M22.1598 21.9415C25.1044 21.9415 27.4995 19.5801 27.4995 16.6789V5.95592C27.4995 4.55335 26.9434 3.23191 25.9335 2.23669C24.9237 1.24147 23.5838 0.693359 22.1598 0.693359H5.83975C2.89516 0.693359 0.5 3.0539 0.5 5.95592V16.6789C0.5 19.581 2.89516 21.9415 5.83975 21.9415H5.93972V24.7202C5.93972 25.78 6.58073 26.7205 7.57206 27.1171C7.89214 27.2438 8.22483 27.3067 8.55415 27.3067C9.24052 27.3067 9.90925 27.0385 10.399 26.5392L15.0894 21.9415H22.1598ZM13.6822 19.8186L8.60624 24.7939C8.58356 24.817 8.56675 24.8344 8.51887 24.8137C8.4609 24.7905 8.4609 24.7533 8.4609 24.7202V20.6996C8.4609 20.014 7.89718 19.4576 7.20073 19.4576H5.84059C4.28554 19.4576 3.02117 18.2107 3.02117 16.6789V5.95592C3.02117 4.42336 4.28554 3.17726 5.84059 3.17726H22.1606C22.9117 3.17726 23.6182 3.46705 24.1525 3.99281C24.6868 4.5194 24.98 5.21655 24.98 5.95592V16.6789C24.98 18.2115 23.7148 19.4576 22.1606 19.4576H14.571C14.2375 19.4576 13.9183 19.5876 13.6822 19.8186Z" fill="white"/>
<path d="M8.37967 9.68359C7.35474 9.68359 6.52051 10.5066 6.52051 11.5159C6.52051 12.5252 7.35558 13.3482 8.37967 13.3482C9.40545 13.3482 10.2405 12.5252 10.2405 11.5159C10.2405 10.5066 9.40629 9.68359 8.37967 9.68359Z" fill="white"/>
<path d="M14.493 9.68359C13.468 9.68359 12.6338 10.5066 12.6338 11.5159C12.6338 12.5252 13.4689 13.3482 14.493 13.3482C15.5196 13.3482 16.3538 12.5252 16.3538 11.5159C16.3538 10.5066 15.5196 9.68359 14.493 9.68359Z" fill="white"/>
<path d="M20.6121 9.68359C19.5872 9.68359 18.7529 10.5066 18.7529 11.5159C18.7529 12.5252 19.588 13.3482 20.6121 13.3482C21.6379 13.3482 22.4729 12.5252 22.4729 11.5159C22.4729 10.5066 21.6379 9.68359 20.6121 9.68359Z" fill="white"/>
</svg>
