<svg width="18" height="17" viewBox="0 0 18 17" fill="none" xmlns="http://www.w3.org/2000/svg">
<path d="M0.181234 13.0156C2.76157 12.5883 3.91718 9.93652 3.96488 9.82335L3.97028 9.8134C4.04362 9.69283 4.08984 9.55757 4.1057 9.41712C4.12156 9.27668 4.10668 9.13444 4.06209 9.0004C3.88928 8.58937 3.31508 8.40649 2.93617 8.28518C2.84077 8.2553 2.75167 8.22633 2.68147 8.19827C1.99476 7.92666 1.85526 7.64329 1.85886 7.45407C1.87687 7.33645 1.92928 7.22688 2.00943 7.13933C2.08957 7.05178 2.19381 6.99021 2.30886 6.96247L2.31516 6.96066C2.41696 6.91925 2.52576 6.89804 2.63557 6.89819C2.73244 6.89679 2.82849 6.91624 2.91727 6.95523C3.18527 7.09151 3.47733 7.17335 3.77678 7.19605C3.94963 7.20013 4.11842 7.1431 4.25379 7.0349L4.22499 6.55507L4.22139 6.49622C4.048 5.27634 4.12147 4.03378 4.43739 2.84317C4.81008 1.98823 5.42488 1.26268 6.20503 0.757103C6.98518 0.251528 7.8961 -0.0116615 8.82405 0.000396523L9.18585 0.00492312C10.1122 -0.00652063 11.0213 0.256723 11.7999 0.761799C12.5784 1.26688 13.1918 1.99141 13.5635 2.84498C13.8798 4.03427 13.9539 5.2756 13.7813 6.49441C13.7693 6.67488 13.7585 6.85534 13.7489 7.03581C13.8981 7.1533 14.0855 7.21075 14.2745 7.19696C14.5926 7.18321 14.9039 7.10044 15.1871 6.95433C15.2565 6.92346 15.3318 6.90832 15.4076 6.90997C15.564 6.90393 15.7183 6.9472 15.849 7.03372C15.9797 7.12023 16.0803 7.24568 16.1366 7.39251C16.2104 7.78181 15.6578 8.06518 15.3212 8.19827C15.2492 8.22724 15.161 8.2553 15.0665 8.28518C14.6867 8.40649 14.1125 8.58937 13.9397 9.0004C13.8952 9.13446 13.8804 9.27668 13.8963 9.4171C13.9121 9.55753 13.9583 9.69278 14.0315 9.8134L14.0369 9.82335C14.2855 10.3683 14.6094 10.8752 14.999 11.3289C15.7069 12.2142 16.7083 12.8131 17.8197 13.0156C17.8721 13.0244 17.9195 13.0524 17.9527 13.0942C17.9859 13.1359 18.0026 13.1885 17.9997 13.2419C17.9976 13.2825 17.9885 13.3223 17.9727 13.3596C17.8134 13.7317 17.0196 14.0386 15.6749 14.2478C15.5489 14.2677 15.4967 14.4741 15.4229 14.8109C15.3941 14.9467 15.3635 15.087 15.3212 15.2319C15.3072 15.296 15.2699 15.3527 15.2167 15.3908C15.1635 15.429 15.0981 15.4459 15.0332 15.4383C14.9047 15.4313 14.777 15.4131 14.6516 15.384C14.3204 15.3112 13.9826 15.2727 13.6436 15.269C13.3996 15.2694 13.1561 15.29 12.9155 15.3305C12.4079 15.4599 11.9357 15.7025 11.534 16.0403C10.8559 16.6228 10.0038 16.9606 9.11295 17C9.08325 17 9.05265 16.9991 9.02295 16.9964C8.98695 16.9982 8.93745 17 8.88705 17C7.99569 16.9606 7.14295 16.6229 6.46422 16.0403C6.06308 15.7026 5.59152 15.46 5.0845 15.3305C4.84417 15.2902 4.60095 15.2696 4.35729 15.269C4.01854 15.2707 3.68082 15.3068 3.34928 15.3767C3.22346 15.4042 3.09544 15.4203 2.96677 15.4247H2.94517C2.88443 15.4296 2.824 15.412 2.77515 15.3754C2.7263 15.3387 2.69236 15.2855 2.67967 15.2255C2.64042 15.0874 2.6062 14.9479 2.57707 14.8073C2.50417 14.4714 2.45107 14.2659 2.32506 14.2459C0.980446 14.0377 0.185736 13.7299 0.0291348 13.3605C0.0127754 13.3233 0.00302696 13.2835 0.000331879 13.2428C-0.00261307 13.1894 0.014122 13.1368 0.0473347 13.0951C0.0805454 13.0533 0.127901 13.0253 0.180336 13.0165L0.181234 13.0156Z" fill="#061539"/>
</svg>
