<svg width="17" height="12" viewBox="0 0 17 12" fill="none" xmlns="http://www.w3.org/2000/svg">
<path d="M6.04946 9.88042L14.8515 1.07942C14.9488 0.982087 15.0635 0.930086 15.1955 0.92342C15.3275 0.916753 15.4485 0.968753 15.5585 1.07942C15.6685 1.19009 15.7238 1.30909 15.7245 1.43642C15.7251 1.56375 15.6701 1.68242 15.5595 1.79242L6.61546 10.7424C6.45346 10.9044 6.2648 10.9854 6.04946 10.9854C5.83413 10.9854 5.64546 10.9044 5.48346 10.7424L1.43346 6.69242C1.33613 6.59509 1.28546 6.47942 1.28146 6.34542C1.27746 6.21142 1.33013 6.08942 1.43946 5.97942C1.5488 5.86942 1.66779 5.81442 1.79646 5.81442C1.92513 5.81442 2.04413 5.86942 2.15346 5.97942L6.04946 9.88042Z" fill="#454545" stroke="#454545"/>
</svg>
