<svg width="14" height="16" viewBox="0 0 14 16" fill="none" xmlns="http://www.w3.org/2000/svg">
<path d="M13.1945 3.74831C12.3924 3.57743 11.6661 3.15587 11.1214 2.54507C10.5768 1.93427 10.2423 1.16618 10.1666 0.352754V0H7.39983V10.9362C7.39812 11.4203 7.24414 11.8918 6.95952 12.2843C6.67491 12.6768 6.27396 12.9706 5.81304 13.1244C5.35211 13.2783 4.85437 13.2844 4.38976 13.142C3.92515 12.9996 3.51702 12.7157 3.22273 12.3304C2.92387 11.9386 2.75808 11.4621 2.74941 10.9702C2.74074 10.4782 2.88964 9.99628 3.17451 9.59427C3.45938 9.19226 3.86542 8.89108 4.33374 8.73439C4.80207 8.57771 5.30832 8.57367 5.77911 8.72286V5.92322C4.72929 5.77868 3.66037 5.96457 2.72185 6.45489C1.78333 6.94521 1.02217 7.71543 0.544815 8.65782C0.067463 9.60021 -0.102197 10.6676 0.0595647 11.7108C0.221327 12.7539 0.706421 13.7207 1.44699 14.4757C2.15324 15.1954 3.0588 15.6892 4.04807 15.894C5.03735 16.0988 6.06547 16.0054 7.0012 15.6257C7.93692 15.2459 8.73781 14.5971 9.30161 13.7619C9.86542 12.9268 10.1666 11.9433 10.1666 10.937V5.3489C11.2848 6.14507 12.6255 6.57197 14 6.56954V3.8315C13.7293 3.83183 13.4593 3.80395 13.1945 3.74831Z" fill="#061539"/>
</svg>
