<svg width="18" height="12" viewBox="0 0 18 12" fill="none" xmlns="http://www.w3.org/2000/svg">
<path d="M17.6238 1.8739C17.4168 1.13638 16.8068 0.555429 16.0324 0.358286C14.6288 -9.08261e-08 9 0 9 0C9 0 3.3712 -9.08261e-08 1.9676 0.358286C1.1932 0.555429 0.5832 1.13638 0.3762 1.8739C0 3.21067 0 6 0 6C0 6 0 8.78933 0.3762 10.1261C0.5832 10.8636 1.1932 11.4446 1.9676 11.6417C3.3712 12 9 12 9 12C9 12 14.6288 12 16.0324 11.6417C16.8068 11.4446 17.4168 10.8636 17.6238 10.1261C18 8.78933 18 6 18 6C18 6 18 3.21067 17.6238 1.8739ZM7.2 8.57143V3.42857L11.8764 6L7.2 8.57143Z" fill="#061539"/>
</svg>
